<svg width="268" height="57" viewBox="0 0 268 57" fill="none" xmlns="http://www.w3.org/2000/svg">
<path d="M35 6.89792C35 22.4183 27.165 35 17.5 35C7.83502 35 0 22.4183 0 6.89792C0 -8.62242 17.5 6.89796 17.5 6.89796C17.5 6.89796 35 -8.62242 35 6.89792Z" fill="#F8F9FA"/>
<path d="M64.8 7L64.72 4.8C64.72 4.61333 64.7733 4.52 64.88 4.52C64.9067 4.52 64.9467 4.58667 65 4.72C65.16 5.65333 65.24 6.53333 65.24 7.36C65.24 8.18666 65.24 8.77333 65.24 9.12C66.0933 9.06667 66.6267 9.04 66.84 9.04C68.2267 9.04 69.9067 9.25333 71.88 9.68C73.3733 8.26667 74.9467 7.56 76.6 7.56C77.5067 7.56 78.28 7.89333 78.92 8.56C79.5867 9.2 79.92 10 79.92 10.96C79.92 11.3067 79.8533 11.48 79.72 11.48C79.6667 11.48 79.5733 11.12 79.44 10.4C79.28 9.28 78.4667 8.72 77 8.72C75.9333 8.72 74.8267 9.2 73.68 10.16C75.2267 10.64 76.5733 11.32 77.72 12.2C79.1067 13.32 79.8 14.5733 79.8 15.96C79.8 17.6667 78.8133 19.0267 76.84 20.04C75.3467 20.8133 73.6267 21.2533 71.68 21.36C76.9067 23.7867 79.52 26.6667 79.52 30C79.52 31.5733 78.8667 32.88 77.56 33.92C76.2533 34.9867 74.8 35.52 73.2 35.52C70.72 35.52 68.56 35.2267 66.72 34.64L60.72 32.16C59.3067 33.8667 57.96 34.9867 56.68 35.52C55.4267 36.1333 53.6667 36.44 51.4 36.44C50.4133 36.44 49.4667 36.1067 48.56 35.44C47.5467 34.7467 47.04 33.8667 47.04 32.8C47.04 31.7333 47.5867 30.92 48.68 30.36C49.7733 29.8 51.0267 29.52 52.44 29.52C53.8533 29.52 55.48 29.8 57.32 30.36C59.3467 28.04 61.0667 24.8 62.48 20.64C63.6533 17.04 64.3867 13.4133 64.68 9.76C59.88 10.1067 56.1867 11.6133 53.6 14.28C52.5867 15.3733 52.08 16.5333 52.08 17.76C52.08 19.7867 53.2 21.2667 55.44 22.2C55.7333 22.36 56.1067 22.4933 56.56 22.6C57.0133 22.68 57.24 22.76 57.24 22.84C57.24 22.9733 57.16 23.04 57 23.04L56.88 23C55.3333 22.8933 53.84 22.2267 52.4 21C50.96 19.7733 50.24 18.4 50.24 16.88C50.24 15.7333 50.7067 14.6933 51.64 13.76C54.4133 10.9067 58.7733 9.36 64.72 9.12C64.7733 8.16 64.8 7.45333 64.8 7ZM78.04 31.24C78.04 28.0933 75.92 25.5067 71.68 23.48L69.4 22.52C69.3467 22.4667 69.32 22.3333 69.32 22.12C69.32 21.4267 69.68 21 70.4 20.84H71.16C71.5067 20.84 71.9467 20.7867 72.48 20.68C73.9733 20.3867 75.2 19.88 76.16 19.16C77.3067 18.2267 77.88 17.12 77.88 15.84C77.88 14.56 77.4267 13.48 76.52 12.6C75.64 11.72 74.5333 11.0533 73.2 10.6C71.6 12.04 70.1333 14.16 68.8 16.96C68 18.6667 66.8667 21.16 65.4 24.44C63.9333 27.6933 62.52 30.0933 61.16 31.64C63.5867 32.5467 65.68 33.28 67.44 33.84C69.2 34.4267 71.0267 34.72 72.92 34.72C76.3333 34.72 78.04 33.56 78.04 31.24ZM71.44 10.16C69.84 9.84 68.4667 9.68 67.32 9.68C66.2 9.68 65.4933 9.69333 65.2 9.72C64.9867 13.4267 64.3067 17.0933 63.16 20.72C61.7733 24.9333 60.0667 28.2267 58.04 30.6L59.56 31.12C60.6 30 61.72 28.16 62.92 25.6C64.12 23.0133 65.4133 20.2533 66.8 17.32C68.3467 14.1733 69.8933 11.7867 71.44 10.16ZM51.84 34.08C51.3333 34.08 51.08 33.9867 51.08 33.8C51.08 33.6667 51.3067 33.6 51.76 33.6C53.52 33.6 55.28 32.6533 57.04 30.76C55.36 30.1733 53.8667 29.88 52.56 29.88C51.2533 29.88 50.12 30.0933 49.16 30.52C48.2 30.92 47.72 31.5867 47.72 32.52C47.72 33.4533 48.16 34.2 49.04 34.76C49.8133 35.2933 50.7733 35.56 51.92 35.56C53.0933 35.56 54.4267 35.16 55.92 34.36C57.44 33.5867 58.5467 32.68 59.24 31.64L57.72 30.96C55.88 33.04 53.92 34.08 51.84 34.08ZM94.8903 26.96C95.0503 26.7467 95.1703 26.64 95.2503 26.64C95.3303 26.64 95.3703 26.7067 95.3703 26.84C95.3703 26.9467 95.317 27.0667 95.2103 27.2C92.8103 30.7733 90.957 32.56 89.6503 32.56C88.9303 32.56 88.3836 32.2267 88.0103 31.56C87.6636 30.8667 87.4903 30.1067 87.4903 29.28C87.4903 28.4267 87.6236 27.4533 87.8903 26.36C86.2103 30.0933 84.477 31.96 82.6903 31.96C81.597 31.96 81.0503 31.2533 81.0503 29.84C81.0503 27.5733 82.1436 25.2133 84.3303 22.76C86.5436 20.3067 88.7436 19.08 90.9303 19.08C91.9703 19.08 92.4903 19.5333 92.4903 20.44C92.4903 21.56 91.7436 22.68 90.2503 23.8C89.477 25.72 89.0903 27.5733 89.0903 29.36C89.0903 31.12 89.4236 32 90.0903 32C90.9703 32 92.5703 30.32 94.8903 26.96ZM90.6503 22.44C91.077 21.8533 91.2903 21.2667 91.2903 20.68C91.2903 20.0933 91.0103 19.8 90.4503 19.8C89.117 19.8 87.3703 21.12 85.2103 23.76C83.0503 26.3733 81.9703 28.3867 81.9703 29.8C81.9703 30.4133 82.2636 30.72 82.8503 30.72C84.5303 30.72 86.157 28.8533 87.7303 25.12C87.2503 25.2533 86.9303 25.32 86.7703 25.32C86.6103 25.32 86.5303 25.28 86.5303 25.2C86.5303 25.0667 86.717 24.9333 87.0903 24.8L88.3303 24.08C88.3836 23.6267 88.6636 23.04 89.1703 22.32C89.677 21.5733 90.157 21.2 90.6103 21.2C90.7703 21.2 90.8503 21.3067 90.8503 21.52C90.8503 21.7333 90.7836 22.04 90.6503 22.44ZM109.134 19.12C109.134 19.5733 106.881 20.44 102.374 21.72C101.174 24.04 100.441 25.52 100.174 26.16C99.481 27.8133 99.1344 29.4 99.1344 30.92C99.1344 31.8 99.4277 32.24 100.014 32.24C100.734 32.24 101.681 31.7333 102.854 30.72L104.654 29.16C104.734 29.16 104.774 29.2 104.774 29.28C104.774 29.36 104.734 29.48 104.654 29.64C104.228 30.28 103.508 31 102.494 31.8C101.481 32.5733 100.681 32.96 100.094 32.96C98.761 32.96 98.0944 32.1467 98.0944 30.52C98.0944 29.3467 98.3877 27.8933 98.9744 26.16C98.7077 25.4133 98.1744 24.8667 97.3744 24.52C97.1344 24.4133 96.7744 24.2667 96.2944 24.08C95.8144 23.8933 95.4277 23.7333 95.1344 23.6C94.841 23.4667 94.6944 23.2 94.6944 22.8C94.6944 22.3733 94.881 22.12 95.2544 22.04H96.3344C97.721 22.04 99.201 21.88 100.774 21.56L104.614 12.96C104.801 12.48 105.241 12.24 105.934 12.24C106.654 12.24 107.014 12.3733 107.014 12.64C107.014 12.72 106.508 13.8667 105.494 16.08C104.508 18.2667 103.961 19.4133 103.854 19.52L103.174 20.16L102.694 21.12C103.334 20.9333 105.281 20.2667 108.534 19.12C108.801 19.0667 108.961 19.04 109.014 19.04C109.094 19.04 109.134 19.0667 109.134 19.12ZM100.494 22.24C99.001 22.5867 97.6544 22.8533 96.4544 23.04C97.841 23.76 98.7344 24.6133 99.1344 25.6C99.401 24.8533 99.8544 23.7333 100.494 22.24ZM118.445 26.96C118.605 26.7467 118.725 26.64 118.805 26.64C118.885 26.64 118.925 26.7067 118.925 26.84C118.925 26.9467 118.872 27.0667 118.765 27.2C116.365 30.7733 114.512 32.56 113.205 32.56C112.485 32.56 111.938 32.2267 111.565 31.56C111.218 30.8667 111.045 30.1067 111.045 29.28C111.045 28.4267 111.178 27.4533 111.445 26.36C109.765 30.0933 108.032 31.96 106.245 31.96C105.152 31.96 104.605 31.2533 104.605 29.84C104.605 27.5733 105.698 25.2133 107.885 22.76C110.098 20.3067 112.298 19.08 114.485 19.08C115.525 19.08 116.045 19.5333 116.045 20.44C116.045 21.56 115.298 22.68 113.805 23.8C113.032 25.72 112.645 27.5733 112.645 29.36C112.645 31.12 112.978 32 113.645 32C114.525 32 116.125 30.32 118.445 26.96ZM114.205 22.44C114.632 21.8533 114.845 21.2667 114.845 20.68C114.845 20.0933 114.565 19.8 114.005 19.8C112.672 19.8 110.925 21.12 108.765 23.76C106.605 26.3733 105.525 28.3867 105.525 29.8C105.525 30.4133 105.818 30.72 106.405 30.72C108.085 30.72 109.712 28.8533 111.285 25.12C110.805 25.2533 110.485 25.32 110.325 25.32C110.165 25.32 110.085 25.28 110.085 25.2C110.085 25.0667 110.272 24.9333 110.645 24.8L111.885 24.08C111.938 23.6267 112.218 23.04 112.725 22.32C113.232 21.5733 113.712 21.2 114.165 21.2C114.325 21.2 114.405 21.3067 114.405 21.52C114.405 21.7333 114.338 22.04 114.205 22.44ZM129.369 33C129.902 33 130.369 32.8133 130.769 32.44C131.169 32.0667 131.396 31.88 131.449 31.88C131.529 31.88 131.569 31.92 131.569 32C131.569 32.08 131.542 32.2 131.489 32.36C130.849 33.4 129.956 33.92 128.809 33.92C127.662 33.92 126.356 33.28 124.889 32C123.449 30.7467 122.236 29.4133 121.249 28L119.729 30.48C119.089 31.4933 118.476 32.24 117.889 32.72C117.676 33.3333 117.262 33.64 116.649 33.64C116.356 33.64 116.209 33.5333 116.209 33.32C116.209 32.5733 116.982 30.2133 118.529 26.24L117.769 26.32C117.609 26.32 117.529 26.2933 117.529 26.24C117.529 25.8667 117.929 25.6667 118.729 25.64C120.196 22.0667 121.169 19.72 121.649 18.6C120.422 19.2667 119.542 19.6 119.009 19.6C118.902 19.6 118.849 19.56 118.849 19.48C118.849 19.2133 119.036 19 119.409 18.84C119.462 18.8133 119.569 18.7733 119.729 18.72C120.636 18.2933 121.449 17.8133 122.169 17.28L126.689 7.2C126.982 6.58667 127.609 6.28 128.569 6.28C129.076 6.28 129.329 6.42667 129.329 6.72C129.329 6.82667 129.209 7.18667 128.969 7.8C128.196 9.90667 126.942 12.3467 125.209 15.12C124.569 15.92 124.129 16.5733 123.889 17.08C123.489 17.8533 123.022 18.76 122.489 19.8C121.982 20.84 121.102 22.7333 119.849 25.48C120.382 24.9733 120.742 24.72 120.929 24.72C121.116 24.72 121.289 24.8667 121.449 25.16C121.876 25.0267 122.262 24.88 122.609 24.72C122.689 24.5333 123.049 23.88 123.689 22.76C124.356 21.6133 125.116 20.5733 125.969 19.64C127.222 18.2267 128.262 17.52 129.089 17.52C129.916 17.52 130.329 18.4133 130.329 20.2C130.329 22.4133 127.902 24.08 123.049 25.2C122.889 25.52 122.609 25.96 122.209 26.52C123.036 27.9867 124.036 29.3333 125.209 30.56C126.756 32.1867 128.142 33 129.369 33ZM128.369 19.96C128.369 19.2133 128.196 18.84 127.849 18.84C127.262 18.84 126.116 20.1333 124.409 22.72L123.409 24.52C126.716 23.32 128.369 21.8 128.369 19.96ZM120.969 27.56C120.676 27.0533 120.396 26.5067 120.129 25.92L119.689 25.96C119.209 27.16 118.662 29.1467 118.049 31.92C119.009 30.8 119.982 29.3467 120.969 27.56ZM147.13 6.32L147.05 4C147.05 3.78667 147.116 3.68 147.25 3.68C147.303 3.68 147.396 3.90667 147.53 4.36C147.663 4.81333 147.73 5.53333 147.73 6.52C147.73 7.50667 147.716 8.18667 147.69 8.56C148.756 8.34667 149.716 8.24 150.57 8.24C152.97 8.24 154.836 8.86666 156.17 10.12C157.663 11.4533 158.41 13.2533 158.41 15.52V15.68C158.41 16.1333 158.223 16.36 157.85 16.36C157.636 16.36 157.396 16.28 157.13 16.12C155.316 15.0267 153.65 14.08 152.13 13.28C150.61 12.4533 149.05 11.7867 147.45 11.28C147.023 14.9867 146.303 18.88 145.29 22.96C144.063 27.5733 142.77 31.3067 141.41 34.16C141.623 34.1867 141.97 34.2 142.45 34.2C145.356 34.2 148.303 33.4533 151.29 31.96C154.276 30.44 156.53 28.4933 158.05 26.12L158.41 25.64C158.436 25.6667 158.45 25.7467 158.45 25.88C158.45 26.0133 158.41 26.16 158.33 26.32C156.783 28.9867 154.223 31.24 150.65 33.08C147.263 34.76 143.93 35.6267 140.65 35.68C138.916 38.7733 137.303 40.32 135.81 40.32C135.57 40.32 135.45 40.24 135.45 40.08C135.45 39.92 135.53 39.8267 135.69 39.8L136.45 39.64C137.676 39.2133 138.93 37.8933 140.21 35.68C137.463 35.6 135.29 34.84 133.69 33.4C132.09 31.96 131.29 29.7733 131.29 26.84C131.29 23.88 132.436 20.7733 134.73 17.52C137.023 14.24 139.69 11.8267 142.73 10.28C142.01 10.2 141.276 10.16 140.53 10.16C139.81 10.16 138.796 10.32 137.49 10.64C136.21 10.9333 135.05 11.3867 134.01 12C132.463 12.9067 131.69 13.92 131.69 15.04C131.69 15.1733 131.703 15.28 131.73 15.36V15.68C131.73 16.0267 131.61 16.2 131.37 16.2C131.05 16.2 130.81 15.9867 130.65 15.56C130.436 15.08 130.33 14.68 130.33 14.36C130.33 12.7867 131.743 11.5733 134.57 10.72C136.65 10.1067 138.716 9.8 140.77 9.8C141.33 9.8 142.17 9.86667 143.29 10C144.783 9.36 146.05 8.92 147.09 8.68C147.116 8.12 147.13 7.33333 147.13 6.32ZM133.49 26C133.49 28.4 134.156 30.28 135.49 31.64C136.823 33.1067 138.663 33.9333 141.01 34.12C142.476 31.1333 143.73 27.5333 144.77 23.32C145.81 19.1067 146.53 15.04 146.93 11.12C145.89 10.8267 144.743 10.5733 143.49 10.36C140.583 11.7467 138.21 13.8933 136.37 16.8C134.45 19.76 133.49 22.8267 133.49 26ZM156.85 14.16C157.036 14.16 157.13 14.0267 157.13 13.76C157.13 13.4933 157.05 13.1733 156.89 12.8C156.196 11.6 155.103 10.7067 153.61 10.12C152.116 9.53333 150.596 9.24 149.05 9.24C148.73 9.24 148.25 9.26667 147.61 9.32L147.49 10.68C150.583 11.32 153.53 12.4133 156.33 13.96C156.596 14.0933 156.77 14.16 156.85 14.16ZM147.01 9.36C145.89 9.54667 144.93 9.8 144.13 10.12C145.97 10.4133 146.916 10.56 146.97 10.56C146.996 10.2933 147.01 9.89333 147.01 9.36ZM181.156 18.48C181.156 22.1867 179.57 25.5467 176.396 28.56C173.303 31.4133 169.836 32.84 165.996 32.84C165.436 32.84 164.903 32.8 164.396 32.72C162.236 35.1467 160.343 36.36 158.716 36.36C158.45 36.36 158.316 36.2667 158.316 36.08C158.316 35.9733 158.383 35.8933 158.516 35.84C158.65 35.8133 159.036 35.7467 159.676 35.64C160.983 35.24 162.383 34.2267 163.876 32.6C160.916 31.8267 159.436 29.7467 159.436 26.36C159.436 25.32 159.583 24.2533 159.876 23.16C159.343 22.1733 159.076 21.16 159.076 20.12C159.076 18.28 159.85 16.5467 161.396 14.92C164.223 12.0133 167.916 10.56 172.476 10.56C172.983 10.56 173.503 10.6 174.036 10.68C174.303 8.73333 174.436 6.68 174.436 4.52C174.436 4.33333 174.516 4.24 174.676 4.24C174.836 4.24 174.916 4.94667 174.916 6.36C174.916 7.77333 174.783 9.24 174.516 10.76C176.436 11.1067 178.036 11.9867 179.316 13.4C180.543 14.8133 181.156 16.5067 181.156 18.48ZM179.756 17.96C179.756 16.28 179.276 14.84 178.316 13.64C177.33 12.44 176.023 11.6667 174.396 11.32C173.756 14.76 172.596 18.3467 170.916 22.08C169.263 25.7867 167.41 28.9467 165.356 31.56C168.823 31.5333 172.063 30.12 175.076 27.32C178.196 24.4933 179.756 21.3733 179.756 17.96ZM172.476 11.12C170.076 11.12 167.836 11.68 165.756 12.8C163.676 13.92 162.143 15.52 161.156 17.6C160.543 18.8267 160.236 20.1067 160.236 21.44C160.236 21.7067 160.25 21.9067 160.276 22.04C161.156 19.7733 162.716 17.72 164.956 15.88C167.196 14.0133 169.45 13.08 171.716 13.08C172.036 13.08 172.196 13.1733 172.196 13.36C172.196 13.52 172.023 13.6 171.676 13.6C169.836 13.6 167.676 14.8133 165.196 17.24C163.01 19.4533 161.503 21.5333 160.676 23.48C160.89 23.88 161.263 24.2133 161.796 24.48C162.33 24.7467 162.596 24.9067 162.596 24.96C162.596 25.1467 162.476 25.24 162.236 25.24C161.676 25.24 161.09 24.84 160.476 24.04C160.13 24.8933 159.956 25.6667 159.956 26.36C159.956 29.64 161.583 31.36 164.836 31.52C166.996 28.88 168.89 25.72 170.516 22.04C172.143 18.3333 173.276 14.72 173.916 11.2C173.596 11.1467 173.116 11.12 172.476 11.12ZM198.98 7L198.9 4.8C198.9 4.61333 198.953 4.52 199.06 4.52C199.086 4.52 199.126 4.58667 199.18 4.72C199.34 5.73333 199.42 6.66666 199.42 7.52C199.42 8.37333 199.42 8.90667 199.42 9.12C199.553 9.12 199.673 9.12 199.78 9.12C201.673 9.12 203.513 9.30667 205.3 9.68C207.193 7.22667 209.126 6 211.1 6C211.873 6 212.646 6.21333 213.42 6.64C214.113 7.06667 214.553 7.56 214.74 8.12C214.953 8.68 215.06 9.06667 215.06 9.28C215.06 9.46667 215.033 9.56 214.98 9.56C214.846 9.56 214.713 9.33333 214.58 8.88C214.473 8.42667 214.06 8.01333 213.34 7.64C212.646 7.26667 211.993 7.08 211.38 7.08C209.726 7.08 208.193 8.01333 206.78 9.88C209.766 10.36 212.34 11.5467 214.5 13.44C216.846 15.5467 218.02 18.0667 218.02 21C218.02 22.8933 217.62 24.7067 216.82 26.44C215.646 28.92 213.94 30.8267 211.7 32.16C209.406 33.4933 206.846 34.16 204.02 34.16C201.22 34.16 198.18 33.4933 194.9 32.16C193.113 34.4267 190.566 35.56 187.26 35.56C186.86 35.56 186.273 35.52 185.5 35.44C184.726 35.3867 183.82 34.9467 182.78 34.12C181.766 33.2933 181.26 32.3867 181.26 31.4C181.26 30.4133 181.74 29.6667 182.7 29.16C183.446 28.7333 184.46 28.52 185.74 28.52C187.046 28.52 189.033 29.0667 191.7 30.16C193.646 27.8667 195.26 24.7867 196.54 20.92C197.82 17.0267 198.593 13.3067 198.86 9.76C193.713 10.0267 189.846 11.5333 187.26 14.28C186.3 15.32 185.82 16.4267 185.82 17.6C185.82 19.6267 186.9 21.1333 189.06 22.12C189.486 22.3333 190.113 22.52 190.94 22.68C191.073 22.7333 191.14 22.7867 191.14 22.84C191.14 22.9733 191.046 23.04 190.86 23.04L190.78 23C189.206 22.8667 187.753 22.2267 186.42 21.08C185.113 19.9333 184.46 18.6933 184.46 17.36C184.46 16 184.926 14.84 185.86 13.88C188.686 10.8933 193.033 9.30667 198.9 9.12C198.953 8.16 198.98 7.45333 198.98 7ZM215.74 21.4C215.74 18.76 214.846 16.3867 213.06 14.28C211.273 12.1733 209.073 10.88 206.46 10.4C205.526 11.8667 204.34 14.2133 202.9 17.44C201.46 20.6667 200.14 23.4933 198.94 25.92C197.766 28.32 196.553 30.2267 195.3 31.64C198.233 32.8933 201.02 33.52 203.66 33.52C207.18 33.52 210.073 32.3867 212.34 30.12C214.606 27.8267 215.74 24.92 215.74 21.4ZM200.22 9.72H199.38C199.193 13.2667 198.473 17.0133 197.22 20.96C195.966 24.88 194.34 28.04 192.34 30.44L193.7 30.96C194.686 29.92 195.74 28.1867 196.86 25.76C197.393 24.6933 198.113 23.1333 199.02 21.08C199.926 19 200.446 17.8267 200.58 17.56C202.286 13.8533 203.74 11.3867 204.94 10.16C203.34 9.86667 201.766 9.72 200.22 9.72ZM186.02 34.08C185.513 34.08 185.26 33.9867 185.26 33.8C185.26 33.6667 185.486 33.6 185.94 33.6C187.78 33.6 189.606 32.5867 191.42 30.56C188.94 29.44 186.873 28.88 185.22 28.88C184.473 28.88 183.726 29.0667 182.98 29.44C182.26 29.7867 181.9 30.4133 181.9 31.32C181.9 32.2 182.406 32.9733 183.42 33.64C184.433 34.3333 185.513 34.68 186.66 34.68C187.833 34.68 189.1 34.3733 190.46 33.76C191.82 33.1467 192.793 32.4 193.38 31.52L192.02 30.84C190.1 33 188.1 34.08 186.02 34.08ZM236.323 7L236.243 4.8C236.243 4.61333 236.297 4.52 236.403 4.52C236.43 4.52 236.47 4.58667 236.523 4.72C236.683 5.65333 236.763 6.53333 236.763 7.36C236.763 8.16 236.763 8.73333 236.763 9.08C239.03 9.4 241.27 9.8 243.483 10.28C245.643 7.48 247.763 6.08 249.843 6.08C251.95 6.08 253.003 6.89333 253.003 8.52C253.003 8.81333 252.937 8.96 252.803 8.96C252.697 8.96 252.643 8.84 252.643 8.6C252.643 7.96 252.39 7.50667 251.883 7.24C251.457 6.97333 250.923 6.84 250.283 6.84C248.577 6.84 246.87 8.08 245.163 10.56C249.83 11.4933 252.923 11.96 254.443 11.96C257.723 11.96 259.363 11.2533 259.363 9.84C259.363 9.6 259.31 9.41333 259.203 9.28C259.123 9.06667 259.083 8.94667 259.083 8.92C259.083 8.86666 259.11 8.84 259.163 8.84C259.403 8.84 259.59 9.06666 259.723 9.52C259.857 9.94667 259.923 10.28 259.923 10.52C259.923 12.36 258.443 13.28 255.483 13.28C253.803 13.28 250.177 12.6667 244.603 11.44C243.697 12.96 242.043 16.2 239.643 21.16C240.737 20.8133 242.55 20.64 245.083 20.64C247.617 20.64 249.777 20.9467 251.563 21.56C251.697 21.6133 251.763 21.68 251.763 21.76C251.763 21.8133 251.697 21.84 251.563 21.84L248.683 21.64C246.417 21.64 244.483 21.8 242.883 22.12C239.977 22.6267 238.523 23.52 238.523 24.8C238.523 24.96 238.59 25.2133 238.723 25.56V25.6C238.43 25.6 238.15 25.28 237.883 24.64C236.337 27.5467 234.803 29.88 233.283 31.64C236.297 32.5467 239.19 33.4 241.963 34.2C244.763 35 247.057 35.4 248.843 35.4C250.657 35.4 252.057 35.1733 253.043 34.72C254.403 34.1333 255.083 33.2267 255.083 32C255.083 31.0933 254.683 29.9867 253.883 28.68L252.723 26.76C252.723 26.7333 252.75 26.72 252.803 26.72C252.883 26.72 253.017 26.8133 253.203 27C254.857 28.36 255.683 29.9333 255.683 31.72C255.683 33.5067 255.057 34.8933 253.803 35.88C252.577 36.8933 251.057 37.4 249.243 37.4C247.43 37.4 244.697 36.6933 241.043 35.28C237.417 33.8933 234.67 32.8533 232.803 32.16C230.137 35.0667 227.163 36.52 223.883 36.52C222.817 36.52 221.71 36.2 220.563 35.56C219.417 34.9467 218.843 34.0667 218.843 32.92C218.843 31.7733 219.417 30.92 220.563 30.36C221.71 29.8 222.91 29.52 224.163 29.52C225.443 29.52 227.003 29.8 228.843 30.36C230.843 28.0933 232.497 25 233.803 21.08C235.137 17.1333 235.937 13.3733 236.203 9.8C234.363 9.58667 232.883 9.48 231.763 9.48C226.937 9.48 224.523 11.1333 224.523 14.44C224.523 16.6267 225.777 18.6 228.283 20.36C228.417 20.4133 228.483 20.48 228.483 20.56C228.483 20.64 228.443 20.68 228.363 20.68C228.283 20.68 228.19 20.6533 228.083 20.6C224.723 18.68 223.043 16.3867 223.043 13.72C223.043 12.2267 223.67 11.0267 224.923 10.12C226.257 9.10666 228.297 8.6 231.043 8.6C232.243 8.6 233.977 8.73333 236.243 9C236.297 8.09333 236.323 7.42667 236.323 7ZM242.883 11.08C241.097 10.68 239.043 10.28 236.723 9.88C236.537 13.3733 235.817 17.0933 234.563 21.04C233.31 24.96 231.643 28.1467 229.563 30.6L231.283 31.12C232.51 29.8933 234.07 27.3867 235.963 23.6C236.23 23.0667 236.723 22.0667 237.443 20.6C239.577 16.2533 241.39 13.08 242.883 11.08ZM223.363 34.08C222.857 34.08 222.603 33.9867 222.603 33.8C222.603 33.6667 222.83 33.6 223.283 33.6C225.017 33.6 226.75 32.6667 228.483 30.8C227.043 30.3467 225.71 30.12 224.483 30.12C223.283 30.12 222.27 30.3067 221.443 30.68C220.323 31.1867 219.763 31.92 219.763 32.88C219.763 33.84 220.19 34.56 221.043 35.04C221.79 35.4933 222.71 35.72 223.803 35.72C224.897 35.72 226.177 35.2933 227.643 34.44C229.11 33.5867 230.243 32.64 231.043 31.6L229.203 31C227.337 33.0533 225.39 34.08 223.363 34.08Z" fill="white"/>
</svg>
